<svg xmlns="http://www.w3.org/2000/svg" viewBox="0 0 135.43 407.19"><defs><style>.cls-1{fill:#470013;}.cls-2{fill:#494646;}.cls-3{fill:#6f0724;}.cls-4{fill:#973f52;}.cls-5{fill:#b78094;}.cls-6{fill:#a76074;}.cls-7{fill:#a3e57f;}.cls-8{fill:#b61f38;}.cls-9{fill:#de718e;}.cls-10{fill:#92905f;}.cls-11{fill:#d13e69;}.cls-12{fill:#ba2440;}</style></defs><g id="Layer_2" data-name="Layer 2"><g id="Layer_1-2" data-name="Layer 1"><path class="cls-1" d="M131.26,392.21c0,1-.07,1.91-.11,2.87-1.37.22-.88,1.26-.9,2.07-1.75,1.48-1.36,4.05-3,5.66a15.31,15.31,0,0,0-1.88,2.86c-6.34,2.07-12.44,1.43-18.47,1.44q-43.9.06-87.81,0l-8.76-5.68c-.47-1.76-2.57-3.51-2.27-6.16-.06-3,3-3.78,4.09-5.87,0-6.18-.24-12.36.07-18.51s-1-12.07-1-18.13q0-88.23,0-176.45c0-6.5-.11-13,0-19.5s-.8-12.83,1-19.13c-.44-9.57.52-19.09,1-28.63.06-1.3.75-2.55.88-3.65.83-7,3.81-13.64,3.1-20.66.79-.56,1.61-.86,2-1.45,1.71-2.83,3.35-5.72,4.93-8.64a61.45,61.45,0,0,0,3.1-6.31c2.13-5.38,2.28-11,1.95-16.88L24.2,50.12l0-2c1.34-1,3.45-1,4-3a9.68,9.68,0,0,0-4-2.74c.06-.3.11-.61.18-1a36.69,36.69,0,0,0,4.63-.69A33.27,33.27,0,0,0,33.18,39V35.13h45V38.4l1.15,1.49h6.82c-.36-1.76-.66-3.26-1-4.76h14c-.29,1.52-.57,3-.93,5,3,0,6-.09,8.88.05a24,24,0,0,1,4.12.88h.06c.19.37.35,1,.6,1.05a28.74,28.74,0,0,0,3.24.21l-.93,1.87c-1,.38-2.51-.94-3,1l-.86.66.84.31-.06,3H99.48c-.57,2.42-1,4.4-1.61,6.78l-1.5,1.71c.47,2.16.81,3.68,1.2,5.45.69.58,1.51,1.39,2.44,2A43.42,43.42,0,0,1,113.1,79.87c1.42,2.58,2.36,5.45,4.1,7.9,2.37,3.35,3.45,7.47,6.49,10.47a5.52,5.52,0,0,1,1.51,4.88c-.66-.63-1.38-1.23-2-1.92-.86-1-1.64-2-2.84-3.55-.1,1.3-.32,1.86-.15,2.24,2,4.23,2.23,8.72,2,13.25-.14,2.22-.9,4.42-.92,6.63-.09,13.29,0,26.58,0,40.21l5,2.65c0-2.24,0-3.86,0-5.47,0-9-.26-18,.07-26.95s-1-18.05-1.07-27.09c.35.28,1,.57,1,.82-.24,3.64,1.63,6.79,2.62,10.06,1.2,4,2.34,7.93,2.38,12.11.05,5,0,9.9,0,15h2.85c.07,15.47-.54,31,.4,46.42,1.12,18.4.4,36.78.64,55.16s.68,36.65-.12,54.92-.45,36.44-.76,54.65c-1.8,9-.3,18.12-1.1,27.14-.34,3.87-.85,7.75-1.05,11.65Zm-96-18a26.39,26.39,0,0,1,4.4-1.06c12-.49,24.07.57,36.12-.89,6.73-.82,13.66-.46,20.46-.06s13.68-1.5,20.12-1.09l2.86-2.39c0-10.26.12-20.25,0-30.24s.13-20.06-.77-30.13,0-20.31-.25-30.46.47-20.4-.75-30.64c-1-8-.2-16.3-.2-24.46,0-8.33,0-16.66,0-25,0-8.06-1.42-16-1.09-24.12.36-8.65.08-17.31.08-25.51L114,145.24c-20.07-.86-39.39,1.57-58.78.92-7.48-.25-15,0-22.48,0H30.83l-2.63,2.4v5.1c0,12,.3,24-.08,36s1.27,24.06,1.11,36.11c-.14,10.66-.21,21.33,0,32s-.17,21.38.71,32.13c1,12.74.38,25.63.2,38.46s.36,25.41,1,38.1c.09,1.8,0,3.61,0,5.5Zm51-324.71-1.09-1.13H78.23v4.13c2.78,4.28,5.8,8.18,11.08,10l2-2.35-5.1-6.65Z"/><path class="cls-2" d="M24.2,50.12l4.92,1.36c.33,5.85.18,11.5-1.95,16.88a61.45,61.45,0,0,1-3.1,6.31c-1.58,2.92-3.22,5.81-4.93,8.64-.36.59-1.18.89-2,1.45.71,7-2.27,13.68-3.1,20.66-.13,1.1-.82,2.35-.88,3.65-.48,9.54-1.44,19.06-1,28.63-1.76,6.3-.82,12.75-1,19.13s0,13,0,19.5q0,88.21,0,176.45c0,6.06,1.37,12,1,18.13s-.07,12.33-.07,18.51c-1.14,2.09-4.15,2.91-4.09,5.87L6.66,395c-.5-2.6-.83-5.25-1.55-7.79S3.32,382.44,2.4,380c0-.82-.13-1.65-.11-2.48C2.8,362.34.9,347.19,1.19,332S1.87,301.3,1,286C.37,276,.52,265.93.33,255.89s-.69-20,.11-29.95c1.13-14.05.55-28.09.75-42.13s-.61-28,.32-41.92c.68-10.07.11-20.12.85-30.13.52-7,1.67-13.91,4.83-20.34,1.52-3.11,2.14-6.59,4-9.63,2.24-3.66,4.17-7.5,6.17-11.3,1.85-3.5,3.85-6.87,5.12-10.72.88-2.67.52-5.18.81-7.76C23.36,51.25,23,50.3,24.2,50.12Z"/><path class="cls-3" d="M78.19,35.13h-53l-1,1h-1l0,0,.05-1c1-3.78,1-3.78.17-6.62l.84-.38,3.41-1.33-1.39-.72-4-2.27V7.54l1.4-1.47c4.73.25,9.37.3,13.48-2.48l.08-1.45c3.78.65,7.36-1,11.1-1,4,0,8-.06,11.94-.09,2.41,1.18,5,1,7.58,1l21.3-.12.06,1.21-4,0-2,1-5.87.93V22.76l1.85.79v1.56H71.43c-.09,1.38-1.11,2.69.89,2.89l7.87.07,0,3.05H77.15l.38,2h1.69c0,.67,0,1.34,0,2Zm-17-9L59.1,24.59l.31,3.53H61.2L62.34,28h8.19L69.4,25.29c-1.61-.06-3.22-.19-4.83-.14-.48,0-.93.56-1.4.86a5.36,5.36,0,0,1-1,.12C61.87,26.11,61.54,26.11,61.21,26.12ZM43.27,27.26c.69-.25,1.87.34,1.89-1.09-.1-.28-.21-.81-.31-.82q-3.16,0-6.33,0c-.08,0-.14.54-.22.83a1.67,1.67,0,0,0,0,.8C39.52,28.52,41.18,28.59,43.27,27.26Zm6.91-1.13H48.4c-.53,2.08.65,2,1.77,2h6.88v-3c-2.1,0-4.06-.05-6,0C50.73,25.15,50.46,25.78,50.18,26.13Zm-15,2,1.08-2H34.21c-1.29-2-3.13-.44-4.36-1-.93,2.69-1.74,5-2.59,7.47L30,34H40.81l1.3-1.39c-.86-1.38-2-1.5-3.45-1.59a12.14,12.14,0,0,1-3.46-1.31Zm31.28,5.77H75v-2.8c-3.39.14-6.61-.17-10.49.31Zm-2.35-2.55H52.7l2,2.79h6.95ZM44.61,34.1h6l1.55-1.47-1.67-1.58c-2.53.3-5-.3-7.83.52ZM76,5.42l-.82-.13c0,2.75-.07,5.51,0,8.26s-.39,5.65.8,8.4Z"/><path class="cls-4" d="M79.19,25.11V23.55l-1.85-.79V5.07l5.87-.93c.25.65.5,1.3.76,2l1.23-1h6C92,7,93.1,6,94.61,5.51L92.77,3.15H89.2v0l-.06-1.21L89.33,0l7.85,1c1,2.43,3.59.06,4.91,1.58.09.76.18,1.51.26,2.12a3.83,3.83,0,0,0,.57.39c2.1.66,4.47.47,6.28,2,.15,4.66-.32,9.34.26,14h7.59l.22,3.05h0c-2.63,0-5.25-.09-7.88,0-.41,0-.81.71-1.21,1.09h-5l.26,2.78,1.74.09v3h-3c-2-.5-.59-2.15-1.06-3.17l-.22-1.74-1.71-.15a4.08,4.08,0,0,0-4.92-.26c-.08.06,0,.32,0,.48,0,.58,0,1.16,0,1.74l-3.15,3.1-1.52,1.22,2.06,1.78H98.2a16.34,16.34,0,0,0,2.8,0c.44-.07.81-.63,1.22-1h5v-2L108.8,33l1-2,.91,2.11h4.52l1,1c-.11,1.18-1,1-1.75,1s-2-.56-2.25,1c-.32,0-.64.07-1,.08-.42-.35-.84-1-1.27-1-3.58-.08-7.17,0-10.76,0h-20c0-.66,0-1.33,0-2h2.84l.14-2h4.68l.67,1.9.64-.06V28.09c1-.39,2.5.91,3-1l.81-.68-.83-.27h0c-.39-.35-.75-1-1.16-1a35.32,35.32,0,0,0-3.85,0l-2.87.05c-.24-1.31-.86-1.41-1.94-.76A8.65,8.65,0,0,1,79.19,25.11Z"/><path class="cls-2" d="M125.2,103.12a5.52,5.52,0,0,0-1.51-4.88c-3-3-4.12-7.12-6.49-10.47-1.74-2.45-2.68-5.32-4.1-7.9A43.42,43.42,0,0,0,100,65.1c-.93-.65-1.75-1.46-2.44-2-.39-1.77-.73-3.29-1.2-5.45l1.5-1.71c.56-2.38,1-4.36,1.61-6.78h11.69c0,2.48.09,5,.07,7.45a5.13,5.13,0,0,0,1.92,4.57c1.14,2.61,2,5.43,3.48,7.79a145.42,145.42,0,0,1,8.58,15.44,121.85,121.85,0,0,1,6.61,17.25,33.15,33.15,0,0,1,1.42,12.5v1l0,2c0,4.22-.17,8.39.69,12.65.74,3.65.1,7.58.06,11.39H131.2c0-5.15,0-10.1,0-15,0-4.18-1.18-8.1-2.38-12.11-1-3.27-2.86-6.42-2.62-10.06,0-.25-.64-.54-1-.82Z"/><path class="cls-4" d="M37.22,2.14l-.08,1.45C33,6.37,28.39,6.32,23.66,6.07l-1.4,1.47V23.8l4,2.27-1.91.19-.11,1.86-.84.38c.79,2.84.79,2.84-.17,6.62h-4c0-2.18.07-4,0-5.76,0-.44-.68-.84-1.05-1.26a5.54,5.54,0,0,0-.91-4q0-9.48,0-18.95l0,0c.48,0,1.17.16,1.43-.1,2.58-2.58,5.8-3,9.22-2.93C31,2.18,34.11,2.14,37.22,2.14Z"/><path class="cls-5" d="M109.2,7.12c-1.81-1.54-4.18-1.35-6.28-2a3.83,3.83,0,0,1-.57-.39c-.08-.61-.17-1.36-.26-2.12-1.32-1.52-3.89.85-4.91-1.58.3-.31.6-.89.91-.89,4.12,0,8.25-.12,12.37.07,1.69.07,3.35.76,5.7,1.34l2,2.3c0,.18.06.65.06,1.13,0,5.77.06,11.55,0,17.32,0,.63-.58,1.25-.9,1.88l-.22-3.05H112.2c-.15-4.65.32-9.34-.26-14Z"/><path class="cls-2" d="M23.19,36.13h1l1-1h8V39a33.27,33.27,0,0,1-4.13,1.67,36.69,36.69,0,0,1-4.63.69c-.07.43-.12.74-.18,1a9.68,9.68,0,0,1,4,2.74c-.57,2-2.68,2-4,3l-1.6-2.91L18.2,43.53c.48-3,2.89-2.14,5-2.51Z"/><path class="cls-5" d="M37.22,2.14c-3.11,0-6.23,0-9.33,0C24.47,2,21.25,2.46,18.67,5c-.26.26-1,.08-1.43.1-.42-2.1,1.45-2.76,2.19-3.6C26-.65,32.47.26,38.85.15s13-.06,19.5,0c.64,0,1.27.58,1.91.89-4,0-8,.11-11.94.09C44.58,1.12,41,2.79,37.22,2.14Z"/><path class="cls-6" d="M108.16,25.25c.4-.38.8-1.07,1.21-1.09,2.63-.08,5.25,0,7.88,0l0,1.94-1.9.13-.12,1.88h-5.86v2.06h4.42l1.42,3h-4.52L109.76,31l-1,2-1.61-1.85h-2v-3h3Z"/><path class="cls-5" d="M115.19,33.13l-1.42-3h-4.42V28.12h7.91c1.37.17.8,1.26,1,2l0,1-2,.36v2.64Z"/><path class="cls-6" d="M18.12,28.1c.37.42,1,.82,1.05,1.26.12,1.78,0,3.58,0,5.76h4l-.05,1H17.51a26.33,26.33,0,0,1-.14-7.62C17.38,28.38,17.86,28.25,18.12,28.1Z"/><path class="cls-5" d="M17.22,5.16q0,9.47,0,19c-.34-.27-1-.54-1-.82q-.09-8.67,0-17.34C16.23,5.68,16.88,5.42,17.22,5.16Z"/><path class="cls-6" d="M111.34,41c2,.17,4.11-.26,5.89,1.08l0,2-3,.05.93-1.87a28.74,28.74,0,0,1-3.24-.21C111.69,42.05,111.53,41.41,111.34,41Z"/><path class="cls-4" d="M117.26,28.11h-2.05l.12-1.88,1.9-.13Z"/><path class="cls-2" d="M131.26,392.21l.8-1.11Z"/><path class="cls-3" d="M35.24,374.22l-4-2.35c0-1.89.08-3.7,0-5.5-.67-12.69-1.21-25.38-1-38.1s.84-25.72-.2-38.46c-.88-10.75-.47-21.43-.71-32.13s-.16-21.32,0-32c.16-12-1.5-24-1.11-36.11s.08-24,.08-36v-5.1l2.63-2.4h1.88c7.49,0,15-.21,22.48,0,19.39.65,38.71-1.78,58.78-.92l2.23,2.95c0,8.2.28,16.86-.08,25.51-.33,8.09,1.12,16.06,1.09,24.12,0,8.32,0,16.65,0,25,0,8.16-.76,16.41.2,24.46,1.22,10.24.53,20.43.75,30.64s-.65,20.38.25,30.46.62,20.09.77,30.13,0,20,0,30.24l-2.86,2.39c-6.44-.41-13.18,1.49-20.12,1.09s-13.73-.76-20.46.06c-12.05,1.46-24.09.4-36.12.89A26.39,26.39,0,0,0,35.24,374.22Zm69.94-41.07.62.87.4-.42-1-.5v-2.27C103.71,332.14,103.93,332.74,105.18,333.15Zm4,0c1.23-.42,1.5-1,0-2.24l-.11,2.17-.87.63.4.4Zm-70,2.93,0,0a2.52,2.52,0,0,0-2-2.91V342H39l.3-4,1.85,1.26,1.73-1.15c.11.5.22.95.3,1.41s.13.91.2,1.45h1.44c.5-5.28.5-5.28-.56-8.06-1.57.86-1.54,3.88-4.12,3.22A3.93,3.93,0,0,0,39.21,336.09Zm63,1.05c.1.91.2,1.82.31,2.73.72-1.09,1.44-2.25-.29-2.75a8.21,8.21,0,0,1,0-1c1.58-2.32,1.42-3.07-1.09-5h-3c-.35.25-1,.51-1,.77,0,2.62.13,5.24.25,7.87,0,.1.23.19.43.35l1.34-.47v-2.54Zm-34,3.95,1-.94,1.83-1.32v-4.39l-1.87-1.62v7.28a6.15,6.15,0,0,0-1,0h-3l0-6.92,2.68-.36c-1.23.09-2.91-1.95-3.74.31a6.43,6.43,0,0,0,0,7c.39.34.75.9,1.18,1A16,16,0,0,0,68.18,341.09Zm26.1-5c1.33-1.13,1.31-2,0-3l-1-1c-1.17-1.83-2.61-.9-3.89-.69v8.75l1.89-.34v-2.65C92.23,336.75,93.8,338.08,94.28,336.13Zm-35.09-82c-1.45-.05-3-.16-3.72,1.43a6.93,6.93,0,0,0,0,2.54l1.78.09,0,2c-.58,2-2.93,3.46-1.57,6H61.2V270l2,.15c.13.75-.39,1.83,1,2l0,0c0,.3,0,.59,0,.89l0,1.07c.6,2-1.87,2.5-2,3.71,0,2.47,1,3.36,3,3.29,0,.33,0,.66,0,1-1.26,1.28-2.48,2.57-1.81,4.59l2.79,1.44,0,2v2.5c1.29,1,2,3,4.5,2.44l2.47-2.93,2,0,2.89,1.29c.06-1,.1-1.64.14-2.26h0c.34-.41.92-.79,1-1.23a36.22,36.22,0,0,0,0-3.76l1.85-.12v-3.46l-1.22-1.37c1.69-2.69,2.84-5,4.35-7.07h0a2.51,2.51,0,0,0,3-2c1.19-1.49,1-3.26,1-5,.34-.43.94-.84,1-1.31.29-3,.47-6,.69-9a17.35,17.35,0,0,1-2.66-3.36,13.49,13.49,0,0,0-11.15-8.29c-1.45-.18-2.48-.57-2.91-2a7.37,7.37,0,0,0,1-1.17c.06-.1-.32-.47-1-1.37v2.55l-4.28.77-2.94-1-3.17,3.36,1.39.92,2,2c0,.33,0,.66,0,1s0,.65,0,1l-3,1.23L60,249.85l-2.2,2.39,1.33.93A6.94,6.94,0,0,1,59.19,254.08Zm.05,79.08,2.81-.33-.08-.66H58.23c-.28.1-.81.2-.81.32q-.08,4.13,0,8.27c0,.12.53.23.81.34l3.83-.12-.06-.86H59.21v-3l2.78-.32,0-.7H59.2Zm21,7c1.93-.48.67-2,1-3a17.48,17.48,0,0,0,0-2.8c-.07-.45-.62-.82-1-1.23s-.78-.91-1.23-1a16.34,16.34,0,0,0-2.8,0c-.35.27-1,.54-1,.82-.08,2.62,0,5.25,0,8.47C77.07,340.57,78.89,342.14,80.2,340.13Zm-29-1c2.16-.92,2.57,2.51,4.85,1.88l-1.84-3.93,2.21-4.49-1.57-.45-1.92,2.77L49,332.64c1.16,2.62,2.59,4.26,2.17,6.49-.3.17-.59.34,0,0C50.85,339.71,51,339.41,51.19,339.11Zm30.06-129,0,0c3,.34,4.85-1.79,6.71-3.42,8.72-7.66,10-17.94,7.76-28.25-1.84-8.57-7.26-15.16-16.41-17.94a24.23,24.23,0,0,0-18.59,1.3c-5,2.41-8.16,6.35-11.11,10.6-1.13,1.63-1.48,3.8-2,5.27-.4,2.17-.79,3.91-1,5.66a13.62,13.62,0,0,0-.24,4.39c1.12,5.44,2.29,10.89,5.91,15.42,4.9,6.12,11,9.92,19,9.82,2.63,0,5.24-.93,7.86-1.45.06,0,.06-.31.09-.48h1Zm5.8,121.21H81.84c.49,3.43.94,6.55,1.4,9.75,1.23,0,2.05.05,2.85,0a18.61,18.61,0,0,0,2.11-.37c-.19-3.16-3.61-.17-4-3,1-.38,2.1-.73,3.13-1.22.33-.15.51-.65.89-1.18l-3.92-.39v-1.48l2.79-.56ZM82.2,353.78l2.55,1.61.48-1.71-2-1.11L85,351.7V348l-2.83.39ZM106.4,335v5l1.59-.11v-4.62ZM64.06,349l-1.66.5V354l1.66-.09Zm9.92,5v-4.76l-1.78.19.22,4.75ZM47.44,340.71l.53.38v-7.93h-.53Zm19.44,8.67-.51,0v4.43l1.86,1.68Zm11.9,6.78.41-2.57-2.77-1.26-.44.49ZM70,349.46A4,4,0,0,0,70,354Zm9.18.55a4.24,4.24,0,0,0,0-.9c-.09-.27-.23-.53-.34-.79-.3-.05-.78-.22-.85-.12a15.18,15.18,0,0,0-.9,1.81ZM94.3,337.62c.31,2.45.31,2.45,1.88,1.85Z"/><path class="cls-2" d="M125.2,103.12c.06,9,1.42,18,1.07,27.09s-.07,18-.07,26.95c0,1.61,0,3.23,0,5.47l-5-2.65c0-13.63,0-26.92,0-40.21,0-2.21.78-4.41.92-6.63.28-4.53,0-9-2-13.25-.17-.38,0-.94.15-2.24,1.2,1.51,2,2.57,2.84,3.55.61.69,1.33,1.29,2,1.92Z"/><path class="cls-2" d="M86.21,49.51v4l5.1,6.65-2,2.35c-5.28-1.77-8.3-5.67-11.08-10V48.38h6.89Z"/><path class="cls-2" d="M111.24,36.18l0,4.87a24,24,0,0,0-4.12-.88c-2.93-.14-5.88-.05-8.88-.05.36-1.94.64-3.47.93-5,3.59,0,7.18-.05,10.76,0C110.4,35.17,110.82,35.83,111.24,36.18Z"/><path class="cls-2" d="M79.2,35.12h6c.3,1.5.6,3,1,4.76H79.34L78.19,38.4V35.13Z"/><path class="cls-2" d="M111.25,45.14c0,.32,0,.65,0,1l-.84-.31Z"/><path class="cls-1" d="M35.2,28.12v1.61A12.14,12.14,0,0,0,38.66,31c1.4.09,2.59.21,3.45,1.59L40.81,34H30l-2.7-1.42c.85-2.44,1.66-4.78,2.59-7.47,1.23.55,3.07-1,4.36,1H31.34v2Z"/><path class="cls-6" d="M88.19,28.09V33l-.64.06-.67-1.9H80.22l0-3.05V26.35H72.32V28c-2-.2-1-1.51-.89-2.89h7.76a8.65,8.65,0,0,0,2.12-.61c1.08-.65,1.7-.55,1.94.76,0,.92.11,1.85.16,2.83Z"/><path class="cls-1" d="M66.48,33.89l-2-2.49c3.88-.48,7.1-.17,10.49-.31v2.8Z"/><path class="cls-1" d="M64.13,31.34l-2.47,2.79H54.71l-2-2.79Z"/><path class="cls-1" d="M44.61,34.1l-1.9-2.53c2.84-.82,5.3-.22,7.83-.52l1.67,1.58L50.66,34.1Z"/><path class="cls-1" d="M50.18,26.13c.28-.35.55-1,.85-1,2-.09,3.92,0,6,0v3H50.17Z"/><path class="cls-4" d="M76,5.42V22c-1.19-2.75-.71-5.6-.8-8.4s0-5.51,0-8.26Z"/><path class="cls-5" d="M91.2,5.13h-6l0-1.95,4,0v0a9.4,9.4,0,0,0,.79,1C90.36,4.49,90.79,4.8,91.2,5.13Z"/><path class="cls-2" d="M80.22,31.12h2l-.14,2H77.53l-.38-2Z"/><path class="cls-2" d="M35.2,28.12H31.34v-2h4.94Z"/><path class="cls-1" d="M61.2,28.12H59.41l-.31-3.53,2.11,1.53Z"/><path class="cls-4" d="M69.4,25.29c-.49.28-1,.8-1.48.82-1.58.06-3.16-.05-4.75-.1.47-.3.92-.84,1.4-.86C66.18,25.1,67.79,25.23,69.4,25.29Z"/><path class="cls-6" d="M38.28,27l5,.23C41.18,28.59,39.52,28.52,38.28,27Z"/><path class="cls-5" d="M24.21,28.12l.11-1.86,1.91-.19,1.39.72Z"/><path class="cls-6" d="M85.22,3.17l0,2L84,6.09c-.26-.65-.51-1.3-.76-1.95Z"/><path class="cls-6" d="M50.18,26.13v2c-1.12,0-2.3.09-1.77-2Z"/><path class="cls-4" d="M61.2,28.12v-2c.33,0,.66,0,1,0l.15,1.9Z"/><path class="cls-1" d="M25.2,35.12l-1,1Z"/><path class="cls-6" d="M109.2,7.12h2.74c.58,4.66.11,9.35.26,14h-2.74C108.88,16.46,109.35,11.78,109.2,7.12Z"/><path class="cls-3" d="M102.22,33.13c-.41.34-.78.9-1.22,1a16.34,16.34,0,0,1-2.8,0v-3h-7L94.35,28l6.8-.07c.47,1-.94,2.67,1.06,3.17Z"/><path class="cls-1" d="M91.2,31.12h7v3H91.74l-2.06-1.78Z"/><path class="cls-6" d="M116.2,34.13V31.49l2-.36c-.1,1.67.68,3.58-1.76,5H112.2c.22-1.52,1.41-.9,2.25-1S116.09,35.31,116.2,34.13Z"/><path class="cls-6" d="M91.2,5.13c-.41-.33-.84-.64-1.21-1a9.4,9.4,0,0,1-.79-1h3.57l1.84,2.36C93.1,6,92,7,91.2,5.13Z"/><path class="cls-2" d="M102.22,33.13v-2h5v2Z"/><path class="cls-5" d="M91.13,26.17c-1.23,0-2.48.07-3.7-.06-.46-.05-.88-.59-1.31-.9a35.32,35.32,0,0,1,3.85,0C90.38,25.2,90.74,25.82,91.13,26.17Z"/><path class="cls-6" d="M99.22,26.06l-4.91.22c0-.16-.09-.42,0-.48A4.08,4.08,0,0,1,99.22,26.06Z"/><path class="cls-6" d="M91.18,27.12c0-.32,0-.64,0-.95l.83.27Z"/><path class="cls-7" d="M79.18,211.09c0,.17,0,.46-.09.48-2.62.52-5.23,1.42-7.86,1.45-8,.1-14.13-3.7-19-9.82-3.62-4.53-4.79-10-5.91-15.42a13.62,13.62,0,0,1,.24-4.39c.24-1.75.63-3.49,1-5.66.55-1.47.9-3.64,2-5.27,2.95-4.25,6.12-8.19,11.11-10.6a24.23,24.23,0,0,1,18.59-1.3c9.15,2.78,14.57,9.37,16.41,17.94,2.22,10.31,1,20.59-7.76,28.25-1.86,1.63-3.73,3.76-6.71,3.42,0-7.81-.09-15.62,0-23.44a12.06,12.06,0,0,0-1.12-5.1c-.11-.24-.52-.34-1.07-.68l-3.66,1.44-1.21,3.72c-1.38.13-.89,1.21-1,2l-1.53.94-2.1-2c-.19,3.78.31,4.23,3.69,3.5v-2.39c1.4-.14.89-1.23,1-2,.72-.14,1.68.35,2-.89a2.28,2.28,0,0,1,3-1.95v22.81l-2,0H74.28c0,.81-.07,1.39-.1,2-1.76.74-.93,1.82,0,2.87v-2.83l2,0c.81,1.48,1.17,1.49,2.06,0C80.16,208.63,78.82,210.13,79.18,211.09Zm-20-33c-1.81-.25-2.63.76-3.07,2.35l1.6,1.71,3.47-.3v-2.76h2l2,2.79c0,1.73,0,3.56,0,5.38,0,.29-.65.55-1,.83-.4-2.22-.82-4.43-3.83-5.11l-.18,2.09-2.32.12,1.38,5.6c1.8.12,3,2.47,4.9.77l.06-1.46,1.7-.08L67.22,186h1.85l.18-1.89,2-1.51v-3.46c1.27-.48,2.57-.91,3.79-1.5.16-.08-.09-1-.18-1.85l-3.58,1.79-.08,1.51-1.71,1-.53-2.8H66.57l-.82,1.85H63.21v-1.57L59.66,176a10.88,10.88,0,0,0-.43,1.13A7.54,7.54,0,0,0,59.2,178.12Zm20.74-9-1-.16c-.61,1.16-1.23,2.31-2,3.71l3,1.59Zm7.3,32.25h-2.1l.32,1.75,1.67-.34Zm-2.07,3.46v-.52H83.25v.52Z"/><path class="cls-8" d="M66.2,251.1c0-.33,0-.65,0-1l.81-.33-.82-.66-2-2c2.34-.45,4.67-2.1,7,0l.34.8.68-.81,2,1,1.66,2H78.2l1,1h4.17l-.89,2.79,2.7.56v1.65h-3l-2.72-2H77.21l-3.47-2.38L72.15,254l5,1.14V258l4.16.36a6.55,6.55,0,0,0-1.07,1.38,5.19,5.19,0,0,0-.07,1.43c1.26,2.49,3.48,3.05,6,3h0l1,1c0,.33,0,.66,0,1l0,1-4,0c-1.73.48-1.17,1.72-.7,2.67a10.47,10.47,0,0,0,1.7,2.05v2.27h0l-3,1-2.86-1.27-.15,2.26-2.81.6,3,2.24c-.77,2.15-1.49,4.15-2.2,6.15v1a33.83,33.83,0,0,0-3.77,0c-.44.05-.83.63-1.23,1h-4L66,286.45l1.36-2.69-2.19-1.64c0-.33,0-.66,0-1a9.28,9.28,0,0,0,1-1.28c-1.38-1.37-.85-3.09-.94-4.68l1,0,1.7-.09c.69-2.12-.62-1.91-1.7-1.94l-2-.05c0-.3,0-.59,0-.89l.9-.63-.4-.39-.53,1c-1.37-.14-.85-1.22-1-2l2.88-3.23,2.42,1.45,3.14-3.45-1.77-2.8H67.09a1.13,1.13,0,0,0-.38.12,7.67,7.67,0,0,1-5.51,3.87h-3c3.65-2.39,3.65-2.39,4.85-5.57,2.16.4,2.66-2.87,5.12-2.47l1,0,1.19,3h3.82c.37,1.66.75,3.33,1.07,4.78h2.77v-3.52l-1,.84c-.44-1-.87-2.08-1.21-2.87l-1.63.78v-3.62l-2.36-2.37H69.2l2.74-3H66.22Zm4,18-2.24.47c1.84,2.41,1.84,2.41,4.25,2v-1.46l3.35-.76-3.27-3Zm9,1-.12-2.26-2.89,1.27c-.34.4-.91.76-1,1.2a17.3,17.3,0,0,0,0,2.79l-4.63,1-1.35,3.29,6-1.64v-2.65h5.06c-.1-1.11-.11-1.87-.26-2.61C80,270.34,79.5,270.25,79.22,270.12ZM75.13,280.7c-1-1.46-2.19-2.25-3.74-1.17a8.8,8.8,0,0,0-1.51,1.82l2,3.95,3.3-1.71Z"/><path class="cls-9" d="M85.19,256.11v-1.65l-2.7-.56.89-2.79H79.21l-1-1h0c-.7-3.28-1.69-3.78-4-2l-2-1h-1c-2.34-2.09-4.67-.44-7,0l-1.39-.92L66,242.87l2.94,1,4.28-.77h0c.43,1.46,1.46,1.85,2.91,2a13.49,13.49,0,0,1,11.15,8.29,17.35,17.35,0,0,0,2.66,3.36c-.22,3-.4,6-.69,9,0,.47-.65.88-1,1.31h0l-1-1c0-.33,0-.66,0-1l-1-1h0c-.42-1.07-.85-2.13-1.19-3H80.19a5.19,5.19,0,0,1,.07-1.43,6.55,6.55,0,0,1,1.07-1.38L77.17,258v-2.81l0-1h2.28l2.72,2v2.64l5.34,1.08C86.64,258.4,85.91,257.26,85.19,256.11Z"/><path class="cls-9" d="M68.18,258.09c-2.46-.4-3,2.87-5.12,2.47-1.2,3.18-1.2,3.18-4.85,5.57H55.66c-1.36-2.52,1-4,1.57-6l3-3c1.86-1.14.93-2.57.71-4H59.14l-1.33-.93,2.2-2.39,3.21,2.48,3-1.23,0,1c-.63,2,1.72,2.51,2,3.65Z"/><path class="cls-10" d="M79.19,206.11V183.3a2.28,2.28,0,0,0-3,1.95c-.29,1.24-1.25.75-2,.89l0,0,1.21-3.72L79.05,181c.55.34,1,.44,1.07.68a12.06,12.06,0,0,1,1.12,5.1c-.1,7.82,0,15.63,0,23.44l0,0-1,.94h-1c-.36-1,1-2.46-.93-2.93l1.69-1.61Z"/><path class="cls-11" d="M71.2,287.12c.4-.34.79-.92,1.23-1a33.83,33.83,0,0,1,3.77,0c.11,1,.7,1.22,1.53.88a11,11,0,0,0,1.46-.89l0,0a36.22,36.22,0,0,1,0,3.76c0,.44-.63.82-1,1.23-.37-1.27-1-1.48-2.34,0h2.34c0,.62-.08,1.24-.14,2.26l-2.89-1.29-.76-1-1.24,1-2.47,2.93c-2.46.57-3.21-1.4-4.5-2.44v-2.5h4l.69.8.32-.81Z"/><path class="cls-9" d="M61.2,266.13a7.67,7.67,0,0,0,5.51-3.87,1.13,1.13,0,0,1,.38-.12h2.76l1.77,2.8-3.14,3.45-2.42-1.45-2.88,3.23-2-.15Z"/><path class="cls-11" d="M76.21,285.11c.71-2,1.43-4,2.2-6.15l-3-2.24,2.81-.6c1-.37,2.55,1,3-1l3-1c-1.51,2.05-2.66,4.38-4.35,7.07l1.22,1.37V286l-1.85.12,0,0C78.75,284.13,77.18,285.52,76.21,285.11Z"/><path class="cls-10" d="M40.18,336.15c2.58.66,2.55-2.36,4.12-3.22,1.06,2.78,1.06,2.78.56,8.06H43.42c-.07-.54-.12-1-.2-1.45s-.19-.91-.3-1.41l-1.73,1.15L39.34,338l-.3,4H37.26v-6.88l2,1,0,0,.64.85Z"/><path class="cls-10" d="M87.05,331.36v1.5l-2.79.56v1.48l3.92.39c-.38.53-.56,1-.89,1.18-1,.49-2.13.84-3.13,1.22.43,2.86,3.85-.13,4,3a18.61,18.61,0,0,1-2.11.37c-.8.07-1.62,0-2.85,0-.46-3.2-.91-6.32-1.4-9.75Z"/><path class="cls-10" d="M51.21,339.13c.42-2.23-1-3.87-2.17-6.49l3.88,2.25,1.92-2.77,1.57.45-2.21,4.49L56,341c-2.28.63-2.69-2.8-4.85-1.88Z"/><path class="cls-10" d="M80.23,333.12c.33.41.88.78,1,1.23a17.48,17.48,0,0,1,0,2.8c-.32,0-.63,0-1,0l-4.72.26,2.44,2.92,2.26-1.19v1c-1.31,2-3.13.44-5,1.28,0-3.22,0-5.85,0-8.47,0-.28.64-.55,1-.82l0,1.09c-.06,1.83.8,2.73,3,2.93v-3Z"/><path class="cls-10" d="M82.2,353.78v-5.35L85,348v3.66l-1.78.87,2,1.11-.48,1.71Z"/><path class="cls-11" d="M65.21,275.17c.09,1.59-.44,3.31.94,4.68a9.28,9.28,0,0,1-1,1.28c-2,.07-3-.82-3-3.29.14-1.21,2.61-1.72,2-3.71Z"/><path class="cls-11" d="M65.2,282.12l2.19,1.64L66,286.45l1.17.67-1,1-2.79-1.44C62.72,284.69,63.94,283.4,65.2,282.12Z"/><path class="cls-10" d="M91.24,337.15v2.65l-1.89.34v-8.75c1.28-.21,2.72-1.14,3.89.69l-.08.08c-2.77.54-2.84.63-3,3.9C90.55,336.43,90.89,336.79,91.24,337.15Z"/><path class="cls-11" d="M84.21,274.13v-2.27a10.47,10.47,0,0,1-1.7-2.05c-.47-.95-1-2.19.7-2.67l4,5A2.51,2.51,0,0,1,84.21,274.13Z"/><path class="cls-10" d="M58.22,341.1c-.28-.11-.81-.22-.81-.34q-.06-4.14,0-8.27c0-.12.53-.22.81-.32l1,1,0,3-.81.34.83.68v3Z"/><path class="cls-9" d="M87.2,272.12l-4-5,4,0h1C88.19,268.86,88.39,270.63,87.2,272.12Z"/><path class="cls-12" d="M66.18,288.15l1-1h4v3h-5Z"/><path class="cls-10" d="M64.23,340.12a6.43,6.43,0,0,1,0-7l1.06.05,0,6.92Z"/><path class="cls-10" d="M69.18,340.1v-7.28l1.87,1.62v4.39l-1.83,1.32Z"/><path class="cls-10" d="M99.23,337.14v2.54l-1.34.47c-.2-.16-.43-.25-.43-.35-.12-2.63-.23-5.25-.25-7.87,0-.26.66-.52,1-.77V336Z"/><path class="cls-9" d="M57.2,258.14l-1.78-.09a6.93,6.93,0,0,1,0-2.54c.7-1.59,2.27-1.48,3.72-1.43v2l-1.86.16Z"/><path class="cls-10" d="M106.4,335l1.59.28v4.62l-1.59.11Z"/><path class="cls-10" d="M64.06,349v5L62.4,354v-4.56Z"/><path class="cls-10" d="M74,353.94l-1.56.18-.22-4.75,1.78-.19Z"/><path class="cls-12" d="M57.2,258.14l.13-1.87,1.86-.16,1,1-3,3Z"/><path class="cls-10" d="M47.44,340.71v-7.56H48v7.93Z"/><path class="cls-10" d="M101.18,331.15c2.51,1.91,2.67,2.66,1.09,5l-1.13-.07,1.11-1.92c-.37-.68-.71-1.32-1-2Z"/><path class="cls-11" d="M60.21,257.13l-1-1v-2a6.94,6.94,0,0,0,0-.91h1.78C61.14,254.56,62.07,256,60.21,257.13Z"/><path class="cls-10" d="M66.88,349.38l1.35,6.08-1.86-1.68v-4.43Z"/><path class="cls-10" d="M78.78,356.16,76,352.82l.44-.49,2.77,1.26Z"/><path class="cls-10" d="M70,349.46V354A4,4,0,0,1,70,349.46Z"/><path class="cls-10" d="M94.23,333.09c1.36,1,1.38,1.91,0,3l-1.1,0,1-1.67v-1.28Z"/><path class="cls-7" d="M59.22,337.14l-.83-.68.81-.34H62l0,.7Z"/><path class="cls-7" d="M93.18,336.1l1.1,0c-.48,1.95-2,.62-3,1-.35-.36-.69-.72-1-1.09Z"/><path class="cls-7" d="M58.22,341.1l1-1H62l.06.86Z"/><path class="cls-7" d="M64.23,340.12l1,0h3c0,.33,0,.66,0,1a16,16,0,0,1-2.77,0C65,341,64.62,340.46,64.23,340.12Z"/><path class="cls-10" d="M79.18,350h-2.1a15.18,15.18,0,0,1,.9-1.81c.07-.1.55.07.85.12.11.26.25.52.34.79A4.24,4.24,0,0,1,79.18,350Z"/><path class="cls-7" d="M101.14,336.06l1.13.07a8.21,8.21,0,0,0,0,1l0,0h-3l-1-1.12Z"/><path class="cls-7" d="M59.24,333.16l-1-1H62l.08.66Z"/><path class="cls-7" d="M65.26,333.17l-1.06-.05c.83-2.26,2.51-.22,3.74-.31Z"/><path class="cls-7" d="M76.22,333.21l0-1.09a16.34,16.34,0,0,1,2.8,0c.45.07.82.64,1.23,1l-1,0Z"/><path class="cls-7" d="M39.23,336.11l-2-1V333.2A2.52,2.52,0,0,1,39.23,336.11Z"/><path class="cls-10" d="M102.22,337.12c1.73.5,1,1.66.29,2.75-.11-.91-.21-1.82-.31-2.73Z"/><path class="cls-7" d="M101.18,331.15l0,1-3,.05v-1.07Z"/><path class="cls-10" d="M94.3,337.62l1.88,1.85C94.61,340.07,94.61,340.07,94.3,337.62Z"/><path class="cls-7" d="M80.2,340.13v-1l0-2c.32,0,.63,0,1,0C80.87,338.15,82.13,339.65,80.2,340.13Z"/><path class="cls-9" d="M65.21,275.17l-1-1,0-1.07,2,.05v2Z"/><path class="cls-10" d="M109.17,333.09l.11-2.17c1.45,1.21,1.18,1.82,0,2.24Z"/><path class="cls-10" d="M105.18,333.15c-1.25-.41-1.47-1,0-2.32v2.27Z"/><path class="cls-9" d="M73.19,292.14l1.24-1,.76,1Z"/><path class="cls-12" d="M73.18,243.15V240.6c.67.9,1,1.27,1,1.37a7.37,7.37,0,0,1-1,1.17Z"/><path class="cls-7" d="M80.22,211.09l1-.94Z"/><path class="cls-10" d="M105.23,333.1l1,.5-.4.42-.62-.87Z"/><path class="cls-10" d="M109.23,333.16l-.53,1-.4-.4.87-.63Z"/><path class="cls-7" d="M40.18,336.15l-.33.79-.64-.85A3.93,3.93,0,0,1,40.18,336.15Z"/><path class="cls-10" d="M93.24,332.08l1,1-.06.06-1-1Z"/><path class="cls-12" d="M66.19,249.13l.82.66-.81.33C66.2,249.79,66.19,249.46,66.19,249.13Z"/><path class="cls-10" d="M68.18,341.09c0-.33,0-.66,0-1a6.15,6.15,0,0,1,1,0l0,0Z"/><path class="cls-10" d="M51.19,339.11c-.17.3-.34.6,0,0-.55.32-.26.15,0,0Z"/><path class="cls-10" d="M63.21,179.11h2.54l.82-1.85h2.37l.53,2.8,1.71-1,0,.05v3.46l-2,1.51,0,0-.38-3.35c-1.74.88-2.82,1.6-2.62,3.32l1,2-1.31,4.05-1.7.08,0,0,0-2h0c.34-.28,1-.54,1-.83.09-1.82,0-3.65,0-5.38l-2-2.79Z"/><path class="cls-10" d="M64.21,190.14l-.06,1.46c-1.89,1.7-3.1-.65-4.9-.77l-1.38-5.6,2.32-.12,0,0v3.63l1.41,1.35h2.57Z"/><path class="cls-10" d="M61.2,179.12v2.76l-3.47.3-1.6-1.71c.44-1.59,1.26-2.6,3.07-2.35h0v1c-1.28.37-1.43,1,0,2.3v-2.3h2Z"/><path class="cls-4" d="M79.94,169.17v5.14l-3-1.59c.74-1.4,1.36-2.55,2-3.71Z"/><path class="cls-10" d="M60.19,185.11l.18-2.09c3,.68,3.43,2.89,3.83,5.11h0l-1.83,1c-.16-1.62,0-3.5-2.17-4Z"/><path class="cls-10" d="M73.23,188.15v2.39c-3.38.73-3.88.28-3.69-3.5l2.1,2,1.53-.94Z"/><path class="cls-10" d="M71.18,179.1l.08-1.51,3.58-1.79c.09.85.34,1.77.18,1.85-1.22.59-2.52,1-3.79,1.5Z"/><path class="cls-10" d="M59.2,178.12a7.54,7.54,0,0,1,0-1,10.88,10.88,0,0,1,.43-1.13l3.55,1.5v1.57l0,0h-2c-.12-1.45-1.22-.91-2-1Z"/><path class="cls-4" d="M79.19,206.11l.75.44-1.69,1.61c-.89,1.45-1.25,1.44-2.06,0,1.43-.1.9-1.21,1-2Z"/><path class="cls-10" d="M77.21,206.13c-.12.78.41,1.89-1,2l-2,0,0,0c0-.58.06-1.16.1-2Z"/><path class="cls-3" d="M67.22,186l-1-2,3,0,0,0L69.07,186Z"/><path class="cls-10" d="M87.24,201.42l-.11,1.41-1.67.34-.32-1.75Z"/><path class="cls-10" d="M74.22,208.14V211c-1-1.05-1.8-2.13,0-2.87Z"/><ellipse class="cls-10" cx="84.21" cy="204.62" rx="1.36" ry="0.37"/><path class="cls-10" d="M74.22,186.14c-.1.78.41,1.87-1,2l-.06-.06c.12-.77-.37-1.85,1-2Z"/><path class="cls-9" d="M74.21,261.12H70.39c-.34-.87-.77-1.93-1.19-3v-3h2.63l2.36,2.37v3.62Z"/><path class="cls-9" d="M75.13,280.7v2.89l-3.3,1.71-2-3.95a8.8,8.8,0,0,1,1.51-1.82C72.94,278.45,74.09,279.24,75.13,280.7Z"/><path class="cls-9" d="M74.19,261.13l1.63-.78c.34.79.77,1.83,1.21,2.87l1-.84v3.52H75.28c-.32-1.45-.7-3.12-1.07-4.78Z"/><path class="cls-11" d="M75.2,273.12v2.65l-6,1.64,1.35-3.29,4.63-1Z"/><path class="cls-11" d="M69.2,255.14v3l-1,0v-2.33c-.24-1.14-2.59-1.66-2-3.65h5.72Z"/><path class="cls-11" d="M79.22,270.12c.28.13.75.22.78.39.15.74.16,1.5.26,2.61H75.2a17.3,17.3,0,0,1,0-2.79c.07-.44.64-.8,1-1.2l.36,2.31Z"/><path class="cls-11" d="M80.19,261.13H85c.34.86.77,1.92,1.19,3C83.67,264.18,81.45,263.62,80.19,261.13Z"/><path class="cls-11" d="M85.19,256.11c.72,1.15,1.45,2.29,2.36,3.73l-5.34-1.08v-2.64Z"/><path class="cls-11" d="M72.21,270.15v1.46c-2.41.39-2.41.39-4.25-2l2.24-.47C71,269.22,72.1,268.7,72.21,270.15Z"/><path class="cls-11" d="M77.21,254.13l0,1-5-1.14,1.59-2.26Z"/><path class="cls-11" d="M74.19,248.1c2.31-1.75,3.3-1.25,4,2H75.85Z"/><path class="cls-9" d="M72.21,270.15c-.11-1.45-1.22-.93-2-1l2.09-2.75,3.27,3Z"/><path class="cls-9" d="M79.22,270.12l-2.65,1.32-.36-2.31,2.89-1.27Z"/><path class="cls-9" d="M81.19,275.13c-.46,2-2,.62-3,1l.15-2.26Z"/><path class="cls-12" d="M76.21,285.11c1,.41,2.54-1,3,1a11,11,0,0,1-1.46.89c-.83.34-1.42.11-1.53-.88Z"/><path class="cls-11" d="M66.22,275.14v-2c1.08,0,2.39-.18,1.7,1.94Z"/><path class="cls-11" d="M86.2,264.12l1,1Z"/><path class="cls-11" d="M88.2,267.12h-1l0-1Z"/><path class="cls-11" d="M78.2,250.13l1,1Z"/><path class="cls-11" d="M71.19,247.14h1l-.68.81Z"/><path class="cls-11" d="M64.16,272.13l.53-1,.4.39-.9.63Z"/><path class="cls-12" d="M78.22,291.14H75.88c1.37-1.48,2-1.27,2.34,0Z"/><path class="cls-8" d="M70.19,290.13h1l-.32.81Z"/><path class="cls-3" d="M80.21,337.12l0,2-2.26,1.19-2.44-2.92Z"/><path class="cls-3" d="M76.22,333.21l3-.07v3C77,335.94,76.16,335,76.22,333.21Z"/><path class="cls-3" d="M93.16,332.16l1,1v1.28l-1,1.67-3,0C90.32,332.79,90.39,332.7,93.16,332.16Z"/><path class="cls-3" d="M98.22,332.23l3-.05c.34.64.68,1.28,1,2l-1.11,1.92-2.92,0Z"/><path class="cls-7" d="M60.21,185.13c2.13.48,2,2.36,2.17,4l1.83-1,0,2H61.62l-1.41-1.35Z"/><path class="cls-7" d="M69.2,184.08l-3,0c-.2-1.72.88-2.44,2.62-3.32Z"/><path class="cls-7" d="M59.2,178.12c.79.1,1.89-.44,2,1h-2Z"/><path class="cls-7" d="M59.2,179.12v2.3c-1.43-1.32-1.28-1.93,0-2.3Z"/></g></g></svg>